<svg xmlns="http://www.w3.org/2000/svg" viewBox="0 0 400 300" width="400" height="300">
  <!-- Fond turquoise exact de l'original -->
  <rect width="400" height="300" fill="#7DD3C0"/>
  
  <!-- Maison stylisée - reproduction exacte de ton logo -->
  <g transform="translate(200, 95)">
    <!-- Toit principal (double structure exacte) -->
    <path d="M-85 25 L0 -40 L85 25 L68 25 L0 -23 L-68 25 Z" fill="#1E3A8A" stroke="#1E3A8A" stroke-width="3"/>
    
    <!-- Toit secondaire (contour intérieur) -->
    <path d="M-68 15 L0 -33 L68 15 L55 15 L0 -20 L-55 15 Z" fill="none" stroke="#1E3A8A" stroke-width="2.5"/>
    
    <!-- Cheminée -->
    <rect x="-92" y="-8" width="8" height="25" fill="#1E3A8A"/>
    
    <!-- Fenêtre centrale avec croix parfaite -->
    <rect x="-15" y="-18" width="30" height="35" fill="none" stroke="#1E3A8A" stroke-width="3"/>
    <line x1="0" y1="-18" x2="0" y2="17" stroke="#1E3A8A" stroke-width="2"/>
    <line x1="-15" y1="-0.5" x2="15" y2="-0.5" stroke="#1E3A8A" stroke-width="2"/>
  </g>
  
  <!-- Texte ESTIMATION (exact spacing et font-weight) -->
  <text x="200" y="165" font-family="Inter, Arial, sans-serif" font-size="48" font-weight="900" text-anchor="middle" fill="#1E3A8A" letter-spacing="3px">ESTIMATION</text>
  
  <!-- Ligne de séparation épaisse comme l'original -->
  <line x1="35" y1="185" x2="365" y2="185" stroke="#1E3A8A" stroke-width="5"/>
  
  <!-- Texte DÉMÉNAGEMENT -->
  <text x="200" y="220" font-family="Inter, Arial, sans-serif" font-size="36" font-weight="800" text-anchor="middle" fill="#1E3A8A" letter-spacing="2px">DÉMÉNAGEMENT</text>
  
  <!-- Point séparateur -->
  <circle cx="345" cy="220" r="4" fill="#1E3A8A"/>
  
  <!-- Chevron V et FR (reproduction exacte du bas) -->
  <g transform="translate(200, 255)">
    <!-- Chevron V exact -->
    <path d="M-35 -8 L0 18 L35 -8" fill="none" stroke="#1E3A8A" stroke-width="5" stroke-linecap="round" stroke-linejoin="round"/>
    <!-- FR centré -->
    <text x="0" y="8" font-family="Inter, Arial, sans-serif" font-size="28" font-weight="900" text-anchor="middle" fill="#1E3A8A" letter-spacing="1px">FR</text>
  </g>
</svg>