<svg xmlns="http://www.w3.org/2000/svg" viewBox="0 0 400 300" width="400" height="300">
  <!-- Fond (optionnel pour version header) -->
  <!-- <rect width="400" height="300" fill="#7DD3C0"/> -->
  
  <!-- Maison stylisée -->
  <g transform="translate(200, 80)">
    <!-- Toit principal -->
    <path d="M-80 20 L0 -40 L80 20 L60 20 L0 -20 L-60 20 Z" fill="#1E3A8A" stroke="#1E3A8A" stroke-width="3"/>
    
    <!-- Toit secondaire -->
    <path d="M-60 10 L0 -30 L60 10 L45 10 L0 -15 L-45 10 Z" fill="none" stroke="#1E3A8A" stroke-width="2"/>
    
    <!-- Cheminée -->
    <rect x="-85" y="-10" width="8" height="25" fill="#1E3A8A"/>
    
    <!-- Fenêtre -->
    <rect x="-8" y="-15" width="16" height="20" fill="none" stroke="#1E3A8A" stroke-width="2"/>
    <line x1="0" y1="-15" x2="0" y2="5" stroke="#1E3A8A" stroke-width="1"/>
    <line x1="-8" y1="-5" x2="8" y2="-5" stroke="#1E3A8A" stroke-width="1"/>
  </g>
  
  <!-- Texte ESTIMATION -->
  <text x="200" y="140" font-family="Inter, Arial, sans-serif" font-size="36" font-weight="bold" text-anchor="middle" fill="#1E3A8A">ESTIMATION</text>
  
  <!-- Ligne de séparation -->
  <line x1="50" y1="155" x2="350" y2="155" stroke="#1E3A8A" stroke-width="3"/>
  
  <!-- Texte DÉMÉNAGEMENT -->
  <text x="200" y="190" font-family="Inter, Arial, sans-serif" font-size="28" font-weight="bold" text-anchor="middle" fill="#1E3A8A">DÉMÉNAGEMENT</text>
  
  <!-- Point -->
  <circle cx="385" cy="190" r="3" fill="#1E3A8A"/>
  
  <!-- Texte FR avec chevron -->
  <g transform="translate(200, 220)">
    <!-- Chevron -->
    <path d="M-30 -5 L0 15 L30 -5" fill="none" stroke="#1E3A8A" stroke-width="3" stroke-linecap="round" stroke-linejoin="round"/>
    <!-- FR -->
    <text x="0" y="0" font-family="Inter, Arial, sans-serif" font-size="20" font-weight="bold" text-anchor="middle" fill="#1E3A8A">FR</text>
  </g>
</svg>
