<svg xmlns="http://www.w3.org/2000/svg" viewBox="0 0 400 300" width="400" height="300">
  <!-- Fond turquoise comme dans ton logo -->
  <rect width="400" height="300" fill="#7DD3C0"/>
  
  <!-- Maison stylisée fidèle à ton design -->
  <g transform="translate(200, 90)">
    <!-- Toit principal (structure double) -->
    <path d="M-90 25 L0 -45 L90 25 L70 25 L0 -25 L-70 25 Z" fill="#1E3A8A" stroke="#1E3A8A" stroke-width="4"/>
    
    <!-- Toit secondaire (contour intérieur) -->
    <path d="M-70 15 L0 -35 L70 15 L55 15 L0 -20 L-55 15 Z" fill="none" stroke="#1E3A8A" stroke-width="3"/>
    
    <!-- Cheminée -->
    <rect x="-95" y="-5" width="10" height="25" fill="#1E3A8A"/>
    
    <!-- Fenêtre centrale avec croix -->
    <rect x="-12" y="-20" width="24" height="30" fill="none" stroke="#1E3A8A" stroke-width="3"/>
    <line x1="0" y1="-20" x2="0" y2="10" stroke="#1E3A8A" stroke-width="2"/>
    <line x1="-12" y1="-5" x2="12" y2="-5" stroke="#1E3A8A" stroke-width="2"/>
  </g>
  
  <!-- Texte ESTIMATION (gros et bold) -->
  <text x="200" y="160" font-family="Inter, Arial, sans-serif" font-size="42" font-weight="900" text-anchor="middle" fill="#1E3A8A" letter-spacing="2px">ESTIMATION</text>
  
  <!-- Ligne de séparation épaisse -->
  <line x1="40" y1="180" x2="360" y2="180" stroke="#1E3A8A" stroke-width="4"/>
  
  <!-- Texte DÉMÉNAGEMENT -->
  <text x="200" y="215" font-family="Inter, Arial, sans-serif" font-size="32" font-weight="800" text-anchor="middle" fill="#1E3A8A" letter-spacing="1px">DÉMÉNAGEMENT</text>
  
  <!-- Point séparateur -->
  <circle cx="350" cy="215" r="4" fill="#1E3A8A"/>
  
  <!-- Chevron et FR -->
  <g transform="translate(200, 250)">
    <!-- Chevron V -->
    <path d="M-40 -8 L0 20 L40 -8" fill="none" stroke="#1E3A8A" stroke-width="4" stroke-linecap="round" stroke-linejoin="round"/>
    <!-- FR centré -->
    <text x="0" y="5" font-family="Inter, Arial, sans-serif" font-size="24" font-weight="800" text-anchor="middle" fill="#1E3A8A">FR</text>
  </g>
</svg>